<?xml version="1.0" encoding="UTF-8" standalone="no"?>
<!DOCTYPE svg PUBLIC "-//W3C//DTD SVG 1.1//EN" "http://www.w3.org/Graphics/SVG/1.1/DTD/svg11.dtd">
<svg width="100%" height="100%" viewBox="0 0 664 646" version="1.1" xmlns="http://www.w3.org/2000/svg" xmlns:xlink="http://www.w3.org/1999/xlink" xml:space="preserve" xmlns:serif="http://www.serif.com/" style="fill-rule:evenodd;clip-rule:evenodd;stroke-linejoin:round;stroke-miterlimit:2;">
    <g transform="matrix(1,0,0,1,-902,-169.022)">
        <rect id="Artboard1" x="0" y="0" width="1920" height="1080" style="fill:none;"/>
        <g id="Artboard11" serif:id="Artboard1">
            <g transform="matrix(0.902174,0,0,0.902174,819,86.9239)">
                <ellipse cx="460" cy="449" rx="368" ry="358"/>
            </g>
            <g id="logo.svg" transform="matrix(1.66516,0,0,1.66516,1238.58,502.824)">
                <clipPath id="_clip1">
                    <rect x="-97" y="-117" width="188.5" height="221"/>
                </clipPath>
                <g clip-path="url(#_clip1)">
                    <g transform="matrix(1,0,0,1,-160,-160)">
                        <g transform="matrix(0.1,0,0,-0.1,0,320)">
                            <path d="M1298,3193C1305,3190 1314,3191 1317,3194C1321,3197 1315,3200 1304,3199C1293,3199 1290,3196 1298,3193Z" style="fill-rule:nonzero;"/>
                            <path d="M1238,3183C1245,3180 1254,3181 1257,3184C1261,3187 1255,3190 1244,3189C1233,3189 1230,3186 1238,3183Z" style="fill-rule:nonzero;"/>
                            <path d="M715,2670C712,2665 722,2654 738,2646C794,2617 795,2613 798,2145C800,1909 798,1705 795,1693C792,1681 777,1659 762,1645L735,1620L838,1620C894,1620 940,1624 940,1628C940,1632 926,1641 910,1647C888,1655 873,1672 857,1707C836,1754 835,1767 832,2143C830,2356 832,2530 837,2529C841,2529 882,2467 926,2392C1169,1983 1215,1911 1235,1911C1251,1910 1295,1978 1440,2225C1542,2398 1629,2540 1633,2540C1637,2540 1639,2352 1637,2123C1634,1684 1631,1658 1588,1645C1563,1637 1565,1622 1592,1618C1606,1616 1617,1605 1622,1585C1633,1545 1650,1135 1653,838L1655,600L1736,600C1780,600 1819,602 1822,605C1825,608 1823,633 1819,660C1807,739 1797,1041 1804,1103L1811,1160L1855,1160C1879,1160 1905,1157 1914,1154C1922,1151 1975,1073 2031,982C2210,690 2243,639 2261,629C2281,619 2430,616 2430,627C2430,631 2413,659 2391,690C2370,720 2297,835 2230,945C2163,1055 2101,1153 2092,1163C2079,1177 2058,1180 1948,1180L1819,1180L1826,1203C1854,1293 1956,1417 2031,1453C2079,1475 2177,1500 2215,1500C2241,1499 2279,1488 2330,1466C2344,1460 2353,1478 2395,1591C2404,1614 2340,1630 2239,1630C2163,1630 2147,1626 2081,1595C1986,1549 1914,1476 1861,1370C1839,1326 1818,1274 1814,1255C1802,1187 1793,1222 1787,1364C1779,1525 1785,1599 1807,1617C1820,1627 1818,1632 1794,1654L1765,1678L1765,2122C1765,2527 1767,2568 1783,2597C1792,2615 1812,2637 1825,2646C1839,2655 1850,2666 1850,2671C1850,2676 1812,2680 1766,2680L1681,2680L1564,2483C1500,2374 1428,2254 1405,2215C1382,2177 1348,2119 1330,2088C1311,2056 1293,2030 1290,2031C1287,2031 1249,2093 1204,2168C1160,2243 1072,2389 1010,2493L896,2680L809,2680C760,2680 719,2676 715,2670Z" style="fill:white;fill-rule:nonzero;"/>
                        </g>
                    </g>
                </g>
            </g>
        </g>
    </g>
</svg>
